#N canvas 0 0 1354 683 10;
#X declare -lib bsaylor;
#X declare -lib bsaylor;
#X obj 61 -26 osc~;
#X obj -32 -85 vsl 15 50 30 1500 0 0 empty empty empty 0 -9 0 10 -203904
-1 -1 0 1;
#X obj -32 6 +~;
#X obj 27 -10 *~;
#X obj -3 -63 vsl 15 50 0 2000 0 0 empty empty empty 0 -9 0 10 -204786
-1 -1 0 1;
#X obj -32 68 *~;
#X obj 18 15 vsl 15 50 0 1 0 0 empty empty empty 0 -9 0 10 -261234
-1 -1 0 1;
#X obj 36 -76 vsl 15 50 0 1000 0 0 empty empty empty 0 -9 0 10 -228856
-1 -1 0 1;
#X text -34 -102 Carrier;
#X text -7 -79 Index;
#X msg 186 -116 \; pd dsp 0;
#X msg 258 -116 \; pd dsp 1;
#X text 34 -92 Modulator;
#X text 16 65 Volume;
#X obj -32 40 osc~;
#X obj 45 201 osc~;
#X obj 106 201 osc~;
#X obj 45 238 *~;
#X obj 107 238 *~;
#X obj 8 185 vsl 15 50 0 1 0 0 empty empty empty 0 -9 0 10 -261234
-1 -1 0 1;
#X obj 147 185 vsl 15 50 0 1 0 0 empty empty empty 0 -9 0 10 -261234
-1 -1 0 1;
#X obj 156 256 *~;
#X obj 109 312 +~;
#X obj 229 268 osc~;
#X obj 277 248 osc~;
#X obj 290 282 +~;
#X obj 230 298 *~;
#X obj 215 330 +~;
#X obj 277 188 vsl 15 50 0 7.5 0 0 empty empty empty 0 -9 0 10 -228856
-1 -1 151 1;
#X text -8 81 Frequency Modulation;
#X text 4 236 Volume;
#X text 130 236 Volume;
#X text 312 182 Modulator;
#X text 111 275 Ring Modulation;
#X text 245 336 Amplitude Modulation;
#X obj 1090 452 catch~ out;
#X obj 1090 482 dac~;
#X obj 229 238 mtof;
#X obj 280 39 vsl 15 50 0 1400 0 0 empty empty empty 0 -9 0 10 -228856
-1 -1 4800 1;
#X obj 496 408 osc~;
#X obj 544 388 osc~;
#X obj 557 422 +~;
#X obj 497 438 *~;
#X obj 544 328 vsl 15 50 0 7.5 0 0 empty empty empty 0 -9 0 10 -228856
-1 -1 0 1;
#X text 521 300 Modulator;
#X obj 496 378 mtof;
#X obj 434 501 throw~ out;
#X msg 592 387 0.8;
#X msg 321 248 1;
#X obj 216 355 lop~ 100;
#X obj 435 454 lop~ 50;
#X obj 435 477 *~;
#X obj 215 394 *~;
#X obj 214 419 throw~ out;
#X msg 229 202 82;
#X obj 1121 68 tgl 30 0 interruptor1 auto.interruptor1 empty 17 7 0
10 -260097 -1 -1 0 1;
#X obj 1121 -72 mrpeach/unpackOSC;
#X obj 1121 -101 mrpeach/udpreceive 9455;
#X text 1119 -120 # receiving and unpacking;
#X obj 1051 9 print osc;
#X obj 1121 -42 mrpeach/routeOSC /collisionType;
#X obj 1150 4 delay 500;
#X msg 1150 29 1;
#X obj 541 153 mrpeach/routeOSC /FxDistance1;
#X obj 541 191 mrpeach/routeOSC /FxDistance2;
#X obj 625 237 vsl 15 50 0 1400 0 0 empty empty empty 0 -9 0 10 -228856
-1 -1 0 1;
#X obj 450 185 loadbang;
#X text 277 17 recieve distance osc;
#X text 1134 426 Multiple instance creation;
#X text 951 229 Map am with bpm as different levels according to the
beat;
#X msg 45 153 82;
#X obj 45 180 mtof;
#X obj 106 178 mtof;
#X msg 106 151 62;
#X msg 450 409 0.15;
#X msg 496 342 65;
#X msg 257 377 0.04;
#X text 951 182 comment;
#X text 952 211 comment;
#X obj 1093 412 multipleInstancer unitGen 2;
#X msg 1155 382 4;
#X obj 276 126 * -1.06;
#X obj 275 150 + 7.5;
#X obj 607 306 * -1.06;
#X obj 606 330 + 7.5;
#X obj 280 98 / 200;
#X obj 649 283 / 200;
#X connect 0 0 3 1;
#X connect 1 0 2 0;
#X connect 2 0 14 0;
#X connect 3 0 2 1;
#X connect 4 0 3 0;
#X connect 5 0 22 0;
#X connect 6 0 5 1;
#X connect 7 0 0 0;
#X connect 14 0 5 0;
#X connect 15 0 17 0;
#X connect 16 0 18 0;
#X connect 17 0 21 0;
#X connect 18 0 21 1;
#X connect 19 0 17 1;
#X connect 20 0 18 1;
#X connect 21 0 22 1;
#X connect 22 0 27 0;
#X connect 23 0 26 0;
#X connect 24 0 25 0;
#X connect 25 0 26 1;
#X connect 26 0 27 1;
#X connect 27 0 49 0;
#X connect 28 0 24 0;
#X connect 35 0 36 0;
#X connect 35 0 36 1;
#X connect 37 0 23 0;
#X connect 38 0 85 0;
#X connect 39 0 42 0;
#X connect 40 0 41 0;
#X connect 41 0 42 1;
#X connect 42 0 50 0;
#X connect 43 0 40 0;
#X connect 45 0 39 0;
#X connect 47 0 41 1;
#X connect 48 0 25 1;
#X connect 49 0 52 0;
#X connect 50 0 51 0;
#X connect 51 0 46 0;
#X connect 52 0 53 0;
#X connect 54 0 37 0;
#X connect 56 0 60 0;
#X connect 56 0 59 0;
#X connect 56 0 63 0;
#X connect 56 0 64 0;
#X connect 57 0 56 0;
#X connect 60 0 55 0;
#X connect 60 0 61 0;
#X connect 61 0 62 0;
#X connect 62 0 55 0;
#X connect 63 0 38 0;
#X connect 64 0 65 0;
#X connect 65 0 86 0;
#X connect 66 0 54 0;
#X connect 66 0 75 0;
#X connect 66 0 76 0;
#X connect 66 0 74 0;
#X connect 70 0 71 0;
#X connect 71 0 15 0;
#X connect 72 0 16 0;
#X connect 73 0 72 0;
#X connect 74 0 51 1;
#X connect 75 0 45 0;
#X connect 76 0 52 1;
#X connect 80 0 79 1;
#X connect 81 0 82 0;
#X connect 82 0 28 0;
#X connect 83 0 84 0;
#X connect 84 0 43 0;
#X connect 85 0 81 0;
#X connect 86 0 83 0;
