#N canvas 0 0 1354 683 10;
#X declare -lib bsaylor;
#X declare -lib bsaylor;
#X declare -lib bsaylor;
#X declare -lib bsaylor;
#N canvas 676 0 681 706 instances 0;
#X obj 25 25 unitGen 0;
#X obj 25 50 unitGen 1;
#X obj 25 75 unitGen 2;
#X obj 25 100 unitGen 3;
#X restore 226 452 pd instances;
#X obj 223 390 s pd-instances;
#X obj 153 107 until;
#X obj 153 158 f 0;
#X obj 179 157 + 1;
#X msg 191 107 0;
#X msg 235 133 clear;
#X obj 153 180 t f f;
#X obj 180 203 * 25;
#X obj 180 223 + 25;
#X obj 123 318 pack f s f;
#X obj 121 10 inlet;
#X msg 123 344 obj 25 \$3 \$2 \$1;
#X obj 151 295 symbol \$1;
#X obj 151 271 loadbang;
#X obj 172 52 f \$2;
#X obj 172 18 loadbang;
#X obj 172 74 t f b b;
#X obj 72 136 bng 15 250 50 0 empty empty empty 17 7 0 10 -262144 -1
-1;
#X msg 316 317 key 1 8 0;
#X msg 282 277 cut;
#X floatatom 445 310 5 0 0 0 - - -;
#X msg 362 355 find unitGen \$1 \, key 1 8 0;
#X obj 59 94 inlet;
#X obj 446 283 bng 15 250 50 0 empty empty empty 17 7 0 10 -262144
-1 -1;
#X obj 448 253 inlet;
#X obj 42 168 tgl 15 0 interruptor auto.interruptor empty 17 7 0 10
-262144 -1 -1 1 1;
#X connect 2 0 3 0;
#X connect 3 0 4 0;
#X connect 3 0 7 0;
#X connect 4 0 3 1;
#X connect 5 0 3 1;
#X connect 6 0 1 0;
#X connect 7 0 10 0;
#X connect 7 1 8 0;
#X connect 8 0 9 0;
#X connect 9 0 10 2;
#X connect 10 0 12 0;
#X connect 11 0 15 0;
#X connect 12 0 1 0;
#X connect 13 0 10 1;
#X connect 14 0 13 0;
#X connect 15 0 17 0;
#X connect 16 0 15 0;
#X connect 17 0 2 0;
#X connect 17 1 5 0;
#X connect 17 2 6 0;
#X connect 18 0 3 0;
#X connect 18 0 26 0;
#X connect 19 0 1 0;
#X connect 20 0 1 0;
#X connect 21 0 22 0;
#X connect 22 0 1 0;
#X connect 23 0 18 0;
#X connect 24 0 21 0;
#X connect 25 0 24 0;
