#N canvas -299 0 1354 716 10;
#X declare -lib bsaylor;
#X msg 78 101 38 40 41 43 45 46 48;
#X obj 68 350 +;
#X obj 68 428 mtof;
#X obj 124 200 random;
#X obj 78 248 packel;
#X obj 118 223 + 1;
#X floatatom 78 301 5 0 0 0 - - -;
#X msg 124 137 7;
#X obj 124 171 t b f;
#X obj 277 188 random;
#X obj 231 236 packel;
#X obj 271 211 + 1;
#X obj 284 159 t b f;
#X floatatom 230 280 5 0 0 0 - - -;
#X floatatom 68 391 5 0 0 0 - - -;
#X obj 230 308 t b f;
#X obj 111 62 t b b;
#X obj 246 490 *~;
#X obj 407 53 sel \$1;
#X obj 407 83 bng 15 250 50 0 empty empty empty 17 7 0 10 -262144 -1
-1;
#X floatatom 407 11 5 0 0 0 - - -;
#X obj 777 258 import bsaylor;
#X obj 511 442 aenv~ 100 200 0.6 500;
#X obj 544 242 vsl 15 128 10 50 0 0 empty empty empty 0 -9 0 10 -262144
-1 -1 0 1;
#X obj 576 243 vsl 15 128 10 800 0 0 empty empty empty 0 -9 0 10 -262144
-1 -1 0 1;
#X obj 610 242 vsl 15 128 0 1 0 0 empty empty empty 0 -9 0 10 -262144
-1 -1 0 1;
#X obj 643 243 vsl 15 128 1 1000 0 0 empty empty empty 0 -9 0 10 -262144
-1 -1 0 1;
#X msg 466 357 1;
#X msg 508 357 0;
#X floatatom 541 391 5 0 0 0 - - -;
#X floatatom 576 392 5 0 0 0 - - -;
#X floatatom 609 393 5 0 0 0 - - -;
#X floatatom 644 394 5 0 0 0 - - -;
#X text 374 347 EXPONENTIAL;
#X obj 245 563 *~;
#X msg 567 204 200;
#X msg 607 204 0.6;
#X obj 584 169 bng 15 250 50 0 empty empty empty 17 7 0 10 -262144
-1 -1;
#X obj 111 37 select 1 0;
#X text 374 361 ADSR ENVELOPE;
#X msg 646 205 1000;
#X msg 530 204 100;
#N canvas 879 56 813 683 effect 1;
#X obj 839 -110 moog~;
#X floatatom 989 -193 5 0 0 0 - - -;
#X obj 922 -192 +~ 1;
#X floatatom 986 -169 5 0 0 0 - - -;
#X obj 922 -151 +~ 100;
#X obj 922 -213 osc~ 0.25;
#X obj 922 -172 *~ 2000;
#X obj 944 -116 sig~ 3;
#X obj 1029 -152 hsl 36 24 7 8.4 0 0 empty empty empty -2 -8 0 10 -203904
-1 -1 0 1;
#X obj 547 126 vcf~;
#X obj 598 87 vsl 24 36 30 1030 0 0 empty empty empty 0 -9 0 10 -262130
-1 -1 0 1;
#X obj 637 153 hsl 36 24 0 1 0 0 empty empty empty -2 -8 0 10 -262130
-1 -1 0 1;
#X text 820 -210 Moog;
#X text 627 181 VCF;
#X obj 236 -153 freeverb~;
#X obj 146 -203 hsl 36 24 0 0.7 0 0 empty empty empty -2 -8 0 10 -204786
-1 -1 0 1;
#X msg 143 -170 wet \$1;
#X obj 147 -144 hsl 36 24 0 0.7 0 0 empty empty empty -2 -8 0 10 -204786
-1 -1 0 1;
#X obj 145 -84 hsl 36 24 0 1 0 0 empty empty empty -2 -8 0 10 -204786
-1 -1 0 1;
#X msg 144 -111 dry \$1;
#X msg 142 -51 roomsize \$1;
#X obj 417 -289 inlet~;
#X obj 240 -62 throw~ out;
#X obj 549 229 throw~ out;
#X obj 839 -31 throw~ out;
#X obj 240 -85 *~;
#X obj 548 194 *~;
#X obj 840 -62 *~;
#X obj 925 -246 hsl 36 24 0 0.14 0 0 empty empty empty -2 -8 0 10 -203904
-1 -1 0 1;
#X obj 185 -289 r interruptor;
#X obj 185 -263 select 1 0;
#X msg 264 -122 0.4;
#X floatatom 830 -284 5 0 0 0 - - -;
#X obj 830 -263 / 10000;
#X floatatom 1083 -241 5 0 0 0 - - -;
#X obj 1083 -220 / 100;
#X obj 1083 -174 + 7;
#X msg 885 -79 0.2;
#X obj 1147 235 osc~;
#X obj 1195 215 osc~;
#X obj 1208 249 +~;
#X obj 1148 265 *~;
#X obj 1195 155 vsl 15 50 0 7.5 0 0 empty empty empty 0 -9 0 10 -261682
-1 -1 0 1;
#X obj 1147 205 mtof;
#X obj 1085 328 throw~ out;
#X msg 1243 214 0.8;
#X obj 1086 281 lop~ 50;
#X obj 1086 304 *~;
#X obj 1276 64 vsl 15 50 0 1400 0 0 empty empty empty 0 -9 0 10 -261682
-1 -1 0 1;
#X msg 1147 154 65;
#X obj 1258 133 * -1.06;
#X obj 1257 157 + 7.5;
#X obj 1300 110 / 200;
#X msg 1101 170 0.1;
#X obj 192 216 lop~;
#X obj 193 246 *~;
#X obj 193 277 throw~ out;
#X msg 307 211 0.4;
#X obj 229 163 vsl 24 36 30 1000 0 0 empty empty empty 0 -9 0 10 -261234
-1 -1 0 1;
#X msg 575 165 0.3;
#X obj 1083 -198 * -1;
#X text 977 146 Randomly pick this out of 5;
#X floatatom 101 -241 5 0 0 0 - - -;
#X obj 229 102 / 10;
#X obj 229 130 + 30;
#X obj 598 30 / 1.4;
#X obj 598 57 + 30;
#X obj 634 115 / 140;
#X obj 101 -220 / 2000;
#X obj 62 -189 / 2000;
#X floatatom 92 -122 5 0 0 0 - - -;
#X obj 92 -101 / 1400;
#X obj 62 -166 * -1;
#X obj 101 -150 0.7;
#X obj 1276 27 r d5.\$1;
#X obj 1082 -270 r d4.\$1;
#X obj 660 13 r d3.\$1;
#X obj 229 69 r d2.\$1;
#X obj 39 -237 r d1.\$1;
#X obj 571 -239 spigot;
#X connect 0 0 27 0;
#X connect 1 0 6 1;
#X connect 2 0 6 0;
#X connect 3 0 4 1;
#X connect 4 0 0 1;
#X connect 5 0 2 0;
#X connect 6 0 4 0;
#X connect 7 0 0 2;
#X connect 8 0 7 0;
#X connect 9 0 26 0;
#X connect 10 0 9 1;
#X connect 11 0 9 2;
#X connect 14 0 25 0;
#X connect 15 0 16 0;
#X connect 16 0 14 0;
#X connect 17 0 19 0;
#X connect 18 0 20 0;
#X connect 19 0 14 0;
#X connect 20 0 14 0;
#X connect 21 0 14 1;
#X connect 21 0 14 0;
#X connect 21 0 0 0;
#X connect 21 0 9 0;
#X connect 21 0 54 0;
#X connect 25 0 22 0;
#X connect 26 0 23 0;
#X connect 27 0 24 0;
#X connect 28 0 5 0;
#X connect 29 0 30 0;
#X connect 30 0 31 0;
#X connect 30 0 59 0;
#X connect 30 0 37 0;
#X connect 30 0 53 0;
#X connect 30 0 49 0;
#X connect 30 0 45 0;
#X connect 30 0 57 0;
#X connect 31 0 25 1;
#X connect 32 0 33 0;
#X connect 33 0 28 0;
#X connect 34 0 35 0;
#X connect 35 0 60 0;
#X connect 36 0 8 0;
#X connect 37 0 27 1;
#X connect 38 0 41 0;
#X connect 39 0 40 0;
#X connect 40 0 41 1;
#X connect 41 0 46 0;
#X connect 42 0 39 0;
#X connect 43 0 38 0;
#X connect 45 0 40 1;
#X connect 46 0 47 0;
#X connect 48 0 52 0;
#X connect 49 0 43 0;
#X connect 50 0 51 0;
#X connect 51 0 42 0;
#X connect 52 0 50 0;
#X connect 53 0 47 1;
#X connect 54 0 55 0;
#X connect 55 0 56 0;
#X connect 57 0 55 1;
#X connect 58 0 54 1;
#X connect 59 0 26 1;
#X connect 60 0 36 0;
#X connect 62 0 68 0;
#X connect 63 0 64 0;
#X connect 64 0 58 0;
#X connect 65 0 66 0;
#X connect 66 0 10 0;
#X connect 67 0 11 0;
#X connect 68 0 15 0;
#X connect 69 0 72 0;
#X connect 70 0 71 0;
#X connect 71 0 18 0;
#X connect 72 0 73 0;
#X connect 73 0 17 0;
#X connect 74 0 48 0;
#X connect 75 0 34 0;
#X connect 75 0 32 0;
#X connect 76 0 65 0;
#X connect 76 0 67 0;
#X connect 77 0 63 0;
#X connect 78 0 62 0;
#X connect 78 0 69 0;
#X connect 78 0 70 0;
#X restore 244 615 pd effect;
#X obj 68 462 phasor~;
#X obj 68 545 tabread4~ waveform1;
#X obj 68 496 *~ 2051;
#X msg 285 133 3;
#X msg 230 102 0 12 24;
#X obj 111 11 r interruptor;
#X msg 147 499 set waveform1;
#X msg 279 453 0.11;
#X obj 245 588 *~;
#X obj 292 571 r lc.\$1;
#X obj 446 500 r lp1;
#X obj 404 619 throw~ out;
#X obj 446 527 select 0 1;
#X obj 444 555 + 1;
#X obj 477 554 - 1;
#X obj 404 590 spigot~;
#X obj 554 99 r abc.\$1;
#X obj 589 135 bng 15 250 50 0 empty empty empty 17 7 0 10 -262144
-1 -1;
#X connect 0 0 4 0;
#X connect 1 0 14 0;
#X connect 2 0 43 0;
#X connect 3 0 5 0;
#X connect 4 0 6 0;
#X connect 5 0 4 1;
#X connect 6 0 1 0;
#X connect 7 0 8 0;
#X connect 8 0 3 0;
#X connect 8 1 3 1;
#X connect 9 0 11 0;
#X connect 10 0 13 0;
#X connect 11 0 10 1;
#X connect 12 0 9 0;
#X connect 12 1 9 1;
#X connect 13 0 15 0;
#X connect 14 0 2 0;
#X connect 15 0 1 0;
#X connect 15 1 1 1;
#X connect 16 0 47 0;
#X connect 16 0 0 0;
#X connect 16 0 50 0;
#X connect 16 0 37 0;
#X connect 16 0 27 0;
#X connect 16 0 49 0;
#X connect 16 1 7 0;
#X connect 16 1 46 0;
#X connect 17 0 34 0;
#X connect 18 0 19 0;
#X connect 20 0 18 0;
#X connect 22 0 34 1;
#X connect 23 0 29 0;
#X connect 24 0 30 0;
#X connect 25 0 31 0;
#X connect 26 0 32 0;
#X connect 27 0 22 0;
#X connect 28 0 22 0;
#X connect 29 0 22 1;
#X connect 30 0 22 2;
#X connect 31 0 22 3;
#X connect 32 0 22 4;
#X connect 34 0 51 0;
#X connect 35 0 24 0;
#X connect 36 0 25 0;
#X connect 37 0 41 0;
#X connect 37 0 35 0;
#X connect 37 0 36 0;
#X connect 37 0 40 0;
#X connect 38 0 16 0;
#X connect 38 1 28 0;
#X connect 40 0 26 0;
#X connect 41 0 23 0;
#X connect 43 0 45 0;
#X connect 44 0 17 0;
#X connect 45 0 44 0;
#X connect 46 0 12 0;
#X connect 47 0 10 0;
#X connect 48 0 38 0;
#X connect 49 0 44 0;
#X connect 50 0 17 1;
#X connect 51 0 42 0;
#X connect 51 0 58 0;
#X connect 52 0 51 1;
#X connect 53 0 55 0;
#X connect 55 0 56 0;
#X connect 55 1 57 0;
#X connect 56 0 58 1;
#X connect 57 0 58 1;
#X connect 58 0 54 0;
#X connect 59 0 60 0;
