#N canvas 0 0 1354 683 10;
#X declare -lib bsaylor;
#X msg 78 101 38 40 41 43 45 46 48;
#X obj 118 353 +;
#X obj 118 465 osc~;
#X obj 118 431 mtof;
#X obj 124 200 random;
#X obj 78 248 packel;
#X obj 118 223 + 1;
#X floatatom 78 301 5 0 0 0 - - -;
#X msg 124 137 7;
#X obj 124 171 t b f;
#X obj 277 188 random;
#X obj 231 236 packel;
#X obj 271 211 + 1;
#X obj 284 159 t b f;
#X floatatom 230 280 5 0 0 0 - - -;
#X floatatom 118 394 5 0 0 0 - - -;
#X obj 230 308 t b f;
#X obj 111 62 t b b;
#X obj 246 490 *~;
#X obj 407 53 sel \$1;
#X obj 407 83 bng 15 250 50 0 empty empty empty 17 7 0 10 -262144 -1
-1;
#X floatatom 407 11 5 0 0 0 - - -;
#X obj 111 11 r interruptor;
#X obj 643 38 import bsaylor;
#X obj 511 442 aenv~ 100 200 0.6 500;
#X obj 544 242 vsl 15 128 10 50 0 0 empty empty empty 0 -9 0 10 -262144
-1 -1 12700 1;
#X obj 576 243 vsl 15 128 10 800 0 0 empty empty empty 0 -9 0 10 -262144
-1 -1 3054 1;
#X obj 610 242 vsl 15 128 0 1 0 0 empty empty empty 0 -9 0 10 -262144
-1 -1 7620 1;
#X obj 643 243 vsl 15 128 1 1000 0 0 empty empty empty 0 -9 0 10 -262144
-1 -1 12700 1;
#X msg 466 357 1;
#X msg 508 357 0;
#X floatatom 541 391 5 0 0 0 - - -;
#X floatatom 576 392 5 0 0 0 - - -;
#X floatatom 609 393 5 0 0 0 - - -;
#X floatatom 644 394 5 0 0 0 - - -;
#X text 374 347 EXPONENTIAL;
#X obj 245 563 *~;
#X obj 245 522 lop~ 800;
#X msg 567 204 200;
#X msg 607 204 0.6;
#X obj 584 169 bng 15 250 50 0 empty empty empty 17 7 0 10 -262144
-1 -1;
#X obj 111 37 select 1 0;
#X text 374 361 ADSR ENVELOPE;
#X msg 646 205 1000;
#X msg 279 453 0.045;
#X msg 530 204 100;
#N canvas 0 0 1354 683 effect 0;
#X obj 726 -122 moog~;
#X floatatom 884 -224 5 0 0 0 - - -;
#X obj 817 -223 +~ 1;
#X floatatom 881 -200 5 0 0 0 - - -;
#X obj 817 -182 +~ 100;
#X obj 817 -244 osc~ 0.25;
#X obj 817 -203 *~ 2000;
#X obj 831 -128 sig~ 3;
#X obj 916 -164 hsl 36 24 7 8.4 0 0 empty empty empty -2 -8 0 10 -262144
-1 -1 3400 1;
#X obj 443 -138 vcf~;
#X obj 494 -171 vsl 24 36 30 1000 0 0 empty empty empty 0 -9 0 10 -262144
-1 -1 3500 1;
#X obj 528 -111 hsl 36 24 0 127 0 0 empty empty empty -2 -8 0 10 -262144
-1 -1 0 1;
#X text 707 -222 Moog;
#X text 439 -233 VCF;
#X obj 123 -165 freeverb~;
#X obj 309 -271 hsl 36 24 0 0.8 0 0 empty empty empty -2 -8 0 10 -262144
-1 -1 2200 1;
#X msg 306 -238 wet \$1;
#X obj 310 -212 hsl 36 24 0 0.7 0 0 empty empty empty -2 -8 0 10 -262144
-1 -1 3100 1;
#X obj 308 -152 hsl 36 24 0 1 0 0 empty empty empty -2 -8 0 10 -262144
-1 -1 2600 1;
#X msg 307 -179 dry \$1;
#X msg 305 -119 roomsize \$1;
#X text 25 284 Feed inlet in both the inputs of freeverb;
#X text 24 250 Reverb cheesomoskeeto \, refer for delay also same tutorial
;
#X text 1075 -241 Take Sid's patch for chorus;
#X obj 304 -301 inlet~;
#X obj 124 -74 throw~ out;
#X obj 444 37 throw~ out;
#X obj 723 5 throw~ out;
#X obj 127 -97 *~;
#X obj 471 -37 *~;
#X msg 498 -66 0.2;
#X obj 759 -42 *~;
#X obj 820 -277 hsl 36 24 0 0.14 0 0 empty empty empty -2 -8 0 10 -262144
-1 -1 3500 1;
#X obj 72 -301 r interruptor;
#X obj 72 -275 select 1 0;
#X msg 151 -134 0.4;
#X floatatom 714 -296 5 0 0 0 - - -;
#X obj 717 -275 / 10000;
#X floatatom 970 -237 5 0 0 0 - - -;
#X obj 970 -216 / 100;
#X obj 970 -192 + 7;
#X msg 786 -71 0.2;
#X connect 0 0 31 0;
#X connect 1 0 6 1;
#X connect 2 0 6 0;
#X connect 3 0 4 1;
#X connect 4 0 0 1;
#X connect 5 0 2 0;
#X connect 6 0 4 0;
#X connect 7 0 0 2;
#X connect 8 0 7 0;
#X connect 9 0 29 0;
#X connect 10 0 9 1;
#X connect 11 0 9 2;
#X connect 14 0 28 0;
#X connect 15 0 16 0;
#X connect 16 0 14 0;
#X connect 17 0 19 0;
#X connect 18 0 20 0;
#X connect 19 0 14 0;
#X connect 20 0 14 0;
#X connect 24 0 14 1;
#X connect 24 0 14 0;
#X connect 24 0 0 0;
#X connect 24 0 9 0;
#X connect 28 0 25 0;
#X connect 29 0 26 0;
#X connect 30 0 29 1;
#X connect 31 0 27 0;
#X connect 32 0 5 0;
#X connect 33 0 34 0;
#X connect 34 0 35 0;
#X connect 34 0 30 0;
#X connect 34 0 41 0;
#X connect 35 0 28 1;
#X connect 36 0 37 0;
#X connect 37 0 32 0;
#X connect 38 0 39 0;
#X connect 39 0 40 0;
#X connect 40 0 8 0;
#X connect 41 0 31 1;
#X restore 240 602 pd effect;
#X msg 231 102 -12 0 12 24 36;
#X msg 285 133 5;
#X connect 0 0 5 0;
#X connect 1 0 15 0;
#X connect 2 0 18 0;
#X connect 3 0 2 0;
#X connect 4 0 6 0;
#X connect 5 0 7 0;
#X connect 6 0 5 1;
#X connect 7 0 1 0;
#X connect 8 0 9 0;
#X connect 9 0 4 0;
#X connect 9 1 4 1;
#X connect 10 0 12 0;
#X connect 11 0 14 0;
#X connect 12 0 11 1;
#X connect 13 0 10 0;
#X connect 13 1 10 1;
#X connect 14 0 16 0;
#X connect 15 0 3 0;
#X connect 16 0 1 0;
#X connect 16 1 1 1;
#X connect 17 0 47 0;
#X connect 17 0 0 0;
#X connect 17 0 44 0;
#X connect 17 0 40 0;
#X connect 17 0 29 0;
#X connect 17 1 8 0;
#X connect 17 1 48 0;
#X connect 18 0 37 0;
#X connect 19 0 20 0;
#X connect 21 0 19 0;
#X connect 22 0 41 0;
#X connect 24 0 36 1;
#X connect 25 0 31 0;
#X connect 26 0 32 0;
#X connect 27 0 33 0;
#X connect 28 0 34 0;
#X connect 29 0 24 0;
#X connect 30 0 24 0;
#X connect 31 0 24 1;
#X connect 32 0 24 2;
#X connect 33 0 24 3;
#X connect 34 0 24 4;
#X connect 36 0 46 0;
#X connect 37 0 36 0;
#X connect 38 0 26 0;
#X connect 39 0 27 0;
#X connect 40 0 45 0;
#X connect 40 0 38 0;
#X connect 40 0 39 0;
#X connect 40 0 43 0;
#X connect 41 0 17 0;
#X connect 41 1 30 0;
#X connect 43 0 28 0;
#X connect 44 0 18 1;
#X connect 45 0 25 0;
#X connect 47 0 11 0;
#X connect 48 0 13 0;
